<?xml version="1.0" encoding="UTF-8" standalone="no" ?>
<!DOCTYPE svg PUBLIC "-//W3C//DTD SVG 1.1//EN" "http://www.w3.org/Graphics/SVG/1.1/DTD/svg11.dtd">
<svg xmlns="http://www.w3.org/2000/svg" xmlns:xlink="http://www.w3.org/1999/xlink" version="1.1" width="1080" height="1080" viewBox="0 0 1080 1080" xml:space="preserve">
<desc>Created with Fabric.js 5.2.4</desc>
<defs>
</defs>
<g transform="matrix(1 0 0 1 540 540)" id="54f9a6b0-70f2-498c-8857-d004879b504f"  >
</g>
<g transform="matrix(1 0 0 1 540 540)" id="bc851d18-9264-4a57-8637-64c7b4d88006"  >
<rect style="stroke: none; stroke-width: 1; stroke-dasharray: none; stroke-linecap: butt; stroke-dashoffset: 0; stroke-linejoin: miter; stroke-miterlimit: 4; fill: rgb(255,255,255); fill-rule: nonzero; opacity: 1; visibility: hidden;" vector-effect="non-scaling-stroke"  x="-540" y="-540" rx="0" ry="0" width="1080" height="1080" />
</g>
<g transform="matrix(1 0 0 1 540 540)"  >
<path style="stroke: rgb(0,0,0); stroke-opacity: 0; stroke-width: 19; stroke-dasharray: none; stroke-linecap: butt; stroke-dashoffset: 0; stroke-linejoin: miter; stroke-miterlimit: 4; fill: rgb(125,211,252); fill-rule: nonzero; opacity: 1;" vector-effect="non-scaling-stroke"  transform=" translate(-256, -256)" d="M 256 512 C 397.4 512 512 397.4 512 256 C 512 114.60000000000002 397.4 0 256 0 C 114.60000000000002 0 0 114.6 0 256 C 0 397.4 114.6 512 256 512 z M 175 175 C 184.4 165.6 199.6 165.6 208.9 175 L 255.9 222 L 302.9 175 C 312.29999999999995 165.6 327.5 165.6 336.79999999999995 175 C 346.0999999999999 184.4 346.19999999999993 199.6 336.79999999999995 208.9 L 289.79999999999995 255.9 L 336.79999999999995 302.9 C 346.19999999999993 312.29999999999995 346.19999999999993 327.5 336.79999999999995 336.79999999999995 C 327.4 346.0999999999999 312.19999999999993 346.19999999999993 302.9 336.79999999999995 L 255.89999999999998 289.79999999999995 L 208.89999999999998 336.79999999999995 C 199.49999999999997 346.19999999999993 184.29999999999998 346.19999999999993 174.99999999999997 336.79999999999995 C 165.69999999999996 327.4 165.59999999999997 312.19999999999993 174.99999999999997 302.9 L 221.99999999999997 255.89999999999998 L 174.99999999999997 208.89999999999998 C 165.59999999999997 199.49999999999997 165.59999999999997 184.29999999999998 174.99999999999997 174.99999999999997 z" stroke-linecap="round" />
</g>
<g transform="matrix(0 0 0 0 0 0)"  >
<g style=""   >
</g>
</g>
</svg>