<?xml version="1.0" encoding="UTF-8" standalone="no"?>
<svg
   viewBox="0 0 512 512"
   version="1.1"
   id="svg12"
   sodipodi:docname="cog-solid.svg"
   inkscape:version="1.2.2 (b0a8486541, 2022-12-01)"
   xmlns:inkscape="http://www.inkscape.org/namespaces/inkscape"
   xmlns:sodipodi="http://sodipodi.sourceforge.net/DTD/sodipodi-0.dtd"
   xmlns="http://www.w3.org/2000/svg"
   xmlns:svg="http://www.w3.org/2000/svg">
  <defs
     id="defs16" />
  <sodipodi:namedview
     id="namedview14"
     pagecolor="#ffffff"
     bordercolor="#000000"
     borderopacity="0.25"
     inkscape:showpageshadow="2"
     inkscape:pageopacity="0.0"
     inkscape:pagecheckerboard="0"
     inkscape:deskcolor="#d1d1d1"
     showgrid="false"
     inkscape:zoom="1.6464844"
     inkscape:cx="154.26809"
     inkscape:cy="232.92052"
     inkscape:window-width="1920"
     inkscape:window-height="1001"
     inkscape:window-x="-9"
     inkscape:window-y="1341"
     inkscape:window-maximized="1"
     inkscape:current-layer="svg12" />
  <!-- Font Awesome Pro 5.15.4 by @fontawesome - https://fontawesome.com License - https://fontawesome.com/license (Commercial License) -->
  <path
     d="m 473.65837,312.07301 -40.079,-23.14422 c 4.04551,-21.82709 4.04551,-44.21865 0,-66.04572 l 40.079,-23.14423 c 4.61005,-2.63431 6.67984,-8.09106 5.17454,-13.17152 -10.44314,-33.49325 -28.22467,-63.78774 -51.46298,-89.001773 -3.57512,-3.85738 -9.40822,-4.798189 -13.92416,-2.16391 L 373.36673,118.54588 C 356.52601,104.05722 337.14507,92.86143 316.16476,85.523012 V 39.328648 c 0,-5.268601 -3.66922,-9.878634 -8.84375,-11.007616 -34.52817,-7.714741 -69.90307,-7.338415 -102.73778,0 -5.17452,1.128982 -8.84373,5.739015 -8.84373,11.007616 v 46.288454 c -20.88626,7.432495 -40.26718,18.628288 -57.202,33.022868 L 98.552569,95.495737 c -4.610031,-2.634307 -10.349064,-1.78757 -13.924174,2.16389 -23.23831,25.119953 -41.019847,55.414443 -51.462969,89.001783 -1.599394,5.08043 0.564487,10.53722 5.174512,13.17152 l 40.079041,23.14421 c -4.04555,21.82708 -4.04555,44.21865 0,66.04572 l -40.079041,23.14423 c -4.610025,2.6343 -6.679842,8.09106 -5.174512,13.17152 10.443122,33.49326 28.224659,63.78774 51.462969,89.00178 3.57511,3.85736 9.408226,4.79817 13.924174,2.16389 l 40.079021,-23.14422 c 16.84073,14.48864 36.22165,25.68443 57.202,33.02285 v 46.28845 c 0,5.2686 3.6692,9.87864 8.84372,11.00761 34.52818,7.71475 69.90309,7.33841 102.7378,0 5.17452,-1.12897 8.84371,-5.73901 8.84371,-11.00761 v -46.28845 c 20.88625,-7.43251 40.26719,-18.62828 57.202,-33.02285 l 40.07903,23.14422 c 4.61002,2.63428 10.34904,1.78757 13.92417,-2.16389 23.23829,-25.11996 41.01983,-55.41444 51.46297,-89.00178 1.41122,-5.17452 -0.65857,-10.63131 -5.26862,-13.2656 z m -217.70624,19.09868 c -41.49025,0 -75.26578,-33.77551 -75.26578,-75.26575 0,-41.49027 33.77553,-75.26579 75.26578,-75.26579 41.49025,0 75.26576,33.77552 75.26576,75.26579 0,41.49024 -33.77551,75.26575 -75.26576,75.26575 z"
     id="path10"
     style="fill:none;fill-opacity:1;stroke:#788697;stroke-width:40.209;stroke-dasharray:none;stroke-opacity:1" />
</svg>
