<?xml version="1.0" standalone="no"?>
<!DOCTYPE svg PUBLIC "-//W3C//DTD SVG 20010904//EN"
 "http://www.w3.org/TR/2001/REC-SVG-20010904/DTD/svg10.dtd">
<svg version="1.0" xmlns="http://www.w3.org/2000/svg"
 width="1350.000000pt" height="1350.000000pt" viewBox="0 0 1350.000000 1350.000000"
 preserveAspectRatio="xMidYMid meet">

<g transform="translate(0.000000,1350.000000) scale(0.100000,-0.100000)"
fill="#000000" stroke="none">
<path d="M6500 9904 c-19 -2 -78 -9 -130 -15 -120 -13 -337 -57 -370 -74 -29
-15 -72 -60 -91 -95 -11 -19 -15 -100 -19 -344 l-5 -318 -124 -54 c-152 -66
-337 -173 -475 -275 l-104 -77 -198 115 c-313 182 -336 193 -400 193 -97 0
-143 -37 -318 -255 -212 -265 -389 -591 -507 -932 -45 -130 -48 -169 -14 -240
28 -61 25 -59 353 -248 l224 -129 -6 -41 c-35 -233 -35 -497 0 -731 l6 -41
-239 -138 c-306 -177 -307 -177 -338 -238 -33 -67 -32 -109 6 -220 149 -434
376 -820 658 -1119 50 -54 74 -71 113 -83 89 -26 104 -20 417 161 l245 142 41
-33 c157 -127 367 -251 570 -336 l90 -38 5 -318 c6 -356 5 -351 80 -416 35
-29 55 -37 148 -55 436 -85 832 -85 1262 0 127 25 178 55 213 128 8 17 14 125
17 345 l5 319 50 19 c157 57 440 219 591 337 l61 48 189 -110 c367 -214 382
-219 472 -193 40 12 63 30 118 88 176 185 351 439 478 694 115 229 206 474
206 551 0 49 -41 134 -76 159 -16 12 -139 85 -274 163 -135 78 -246 143 -248
144 -1 2 5 61 13 132 23 199 19 439 -11 639 l-6 41 255 147 c140 81 267 160
282 175 37 36 65 98 65 145 0 99 -171 508 -307 736 -158 262 -378 538 -466
583 -32 16 -54 19 -103 16 -59 -4 -75 -11 -324 -155 l-263 -151 -61 48 c-160
124 -348 235 -540 316 l-101 43 -5 318 c-5 295 -6 320 -25 352 -35 60 -86 92
-177 113 -205 46 -335 59 -608 63 -146 2 -281 1 -300 -1z m407 -124 c159 -9
357 -34 479 -60 32 -7 61 -21 75 -36 l24 -26 5 -344 5 -345 132 -53 c212 -85
428 -213 608 -360 37 -31 70 -54 74 -52 3 2 124 71 268 154 144 84 277 159
296 168 66 32 92 13 245 -176 210 -259 396 -594 503 -909 35 -104 37 -145 7
-173 -13 -11 -149 -93 -303 -182 -220 -127 -280 -166 -279 -181 0 -11 9 -74
19 -140 26 -164 26 -464 0 -630 -10 -66 -19 -129 -19 -139 -1 -15 63 -57 287
-186 159 -92 296 -174 304 -183 30 -30 15 -100 -69 -312 -106 -267 -261 -532
-452 -770 -121 -150 -157 -185 -192 -185 -20 0 -121 52 -309 161 -154 88 -287
164 -295 169 -12 6 -36 -8 -90 -52 -184 -147 -459 -306 -655 -377 l-80 -29 -5
-343 c-4 -243 -9 -350 -17 -365 -16 -28 -47 -39 -173 -63 -356 -67 -756 -65
-1125 4 -87 17 -139 39 -152 64 -4 9 -10 171 -13 360 l-5 343 -80 29 c-204 75
-487 238 -653 379 l-74 62 -186 -108 c-422 -244 -409 -237 -446 -230 -35 7
-71 45 -221 231 -174 218 -369 578 -466 864 -32 92 -36 138 -16 165 7 9 143
93 302 185 226 130 290 172 289 187 0 10 -9 73 -19 139 -26 165 -26 465 0 630
10 66 19 128 19 138 1 14 -70 59 -284 183 -157 91 -293 174 -302 185 -25 30
-22 73 11 170 113 331 280 633 507 914 111 138 159 185 191 185 16 0 139 -65
317 -167 160 -91 294 -168 297 -169 3 -2 45 27 92 65 182 147 408 278 618 359
l104 40 5 343 c4 248 8 350 17 366 7 12 28 26 45 32 82 27 385 67 553 74 39 2
79 4 90 5 11 1 97 -3 192 -8z"/>
<path d="M6580 7799 c-415 -69 -753 -380 -861 -792 -31 -116 -37 -321 -14
-441 41 -220 141 -411 296 -566 414 -414 1082 -413 1498 1 276 276 380 695
264 1064 -121 384 -454 671 -853 735 -77 12 -253 11 -330 -1z m365 -135 c209
-40 423 -176 555 -353 58 -80 132 -230 154 -316 74 -289 17 -573 -164 -813
-178 -237 -443 -367 -745 -366 -412 2 -760 259 -889 656 -101 311 -22 667 204
911 224 244 544 345 885 281z"/>
</g>
</svg>
