<?xml version="1.0" encoding="UTF-8" standalone="no" ?>
<!DOCTYPE svg PUBLIC "-//W3C//DTD SVG 1.1//EN" "http://www.w3.org/Graphics/SVG/1.1/DTD/svg11.dtd">
<svg xmlns="http://www.w3.org/2000/svg" xmlns:xlink="http://www.w3.org/1999/xlink" version="1.1" width="1080" height="1080" viewBox="0 0 1080 1080" xml:space="preserve">
<desc>Created with Fabric.js 5.2.4</desc>
<defs>
</defs>
<g transform="matrix(1 0 0 1 540 540)" id="96577c94-fecb-4b0a-b2b4-e83e2d727ccb"  >
<rect style="stroke: none; stroke-width: 1; stroke-dasharray: none; stroke-linecap: butt; stroke-dashoffset: 0; stroke-linejoin: miter; stroke-miterlimit: 4; fill: rgb(255,255,255); fill-rule: nonzero; opacity: 1; visibility: hidden;" vector-effect="non-scaling-stroke"  x="-540" y="-540" rx="0" ry="0" width="1080" height="1080" />
</g>
<g transform="matrix(1 0 0 1 540 540)" id="153a230f-9463-49b7-9dd0-00826361ee06"  >
</g>
<g transform="matrix(1 0 0 1 540 540)"  >
<path style="stroke: rgb(0,0,0); stroke-width: 10; stroke-dasharray: none; stroke-linecap: butt; stroke-dashoffset: 0; stroke-linejoin: miter; stroke-miterlimit: 4; fill: rgb(0,0,0); fill-opacity: 0; fill-rule: nonzero; opacity: 1;" vector-effect="non-scaling-stroke"  transform=" translate(-256.05, -256.1)" d="M 487.4 315.7 L 444.79999999999995 291.09999999999997 C 449.09999999999997 267.9 449.09999999999997 244.09999999999997 444.79999999999995 220.89999999999998 L 487.4 196.29999999999998 C 492.29999999999995 193.49999999999997 494.5 187.7 492.9 182.29999999999998 C 481.79999999999995 146.7 462.9 114.49999999999999 438.2 87.69999999999999 C 434.4 83.6 428.2 82.6 423.4 85.39999999999999 L 380.8 110 C 362.90000000000003 94.6 342.3 82.7 320 74.9 L 320 25.8 C 320 20.200000000000003 316.1 15.3 310.6 14.100000000000001 C 273.90000000000003 5.900000000000002 236.3 6.300000000000002 201.40000000000003 14.100000000000001 C 195.90000000000003 15.3 192.00000000000003 20.200000000000003 192.00000000000003 25.8 L 192.00000000000003 75 C 169.80000000000004 82.9 149.20000000000005 94.8 131.20000000000005 110.1 L 88.7 85.5 C 83.8 82.7 77.7 83.6 73.9 87.8 C 49.2 114.5 30.300000000000004 146.7 19.200000000000003 182.39999999999998 C 17.500000000000004 187.79999999999998 19.800000000000004 193.59999999999997 24.700000000000003 196.39999999999998 L 67.3 221 C 63 244.2 63 268 67.3 291.2 L 24.699999999999996 315.8 C 19.799999999999997 318.6 17.599999999999994 324.40000000000003 19.199999999999996 329.8 C 30.299999999999997 365.40000000000003 49.199999999999996 397.6 73.9 424.4 C 77.7 428.5 83.9 429.5 88.7 426.7 L 131.3 402.09999999999997 C 149.20000000000002 417.49999999999994 169.8 429.4 192.10000000000002 437.2 L 192.10000000000002 486.4 C 192.10000000000002 492 196.00000000000003 496.9 201.50000000000003 498.09999999999997 C 238.20000000000005 506.29999999999995 275.8 505.9 310.70000000000005 498.09999999999997 C 316.20000000000005 496.9 320.1 491.99999999999994 320.1 486.4 L 320.1 437.2 C 342.3 429.3 362.90000000000003 417.4 380.90000000000003 402.09999999999997 L 423.50000000000006 426.7 C 428.40000000000003 429.5 434.50000000000006 428.59999999999997 438.30000000000007 424.4 C 463.00000000000006 397.7 481.9000000000001 365.5 493.00000000000006 329.79999999999995 C 494.50000000000006 324.29999999999995 492.30000000000007 318.49999999999994 487.40000000000003 315.69999999999993 z M 256 336 C 211.9 336 176 300.1 176 256 C 176 211.89999999999998 211.9 176 256 176 C 300.1 176 336 211.9 336 256 C 336 300.1 300.1 336 256 336 z" stroke-linecap="round" />
</g>
</svg>