<?xml version="1.0" encoding="UTF-8" standalone="no" ?>
<!DOCTYPE svg PUBLIC "-//W3C//DTD SVG 1.1//EN" "http://www.w3.org/Graphics/SVG/1.1/DTD/svg11.dtd">
<svg xmlns="http://www.w3.org/2000/svg" xmlns:xlink="http://www.w3.org/1999/xlink" version="1.1" width="1080" height="1080" viewBox="0 0 1080 1080" xml:space="preserve">
<desc>Created with Fabric.js 5.2.4</desc>
<defs>
</defs>
<rect x="0" y="0" width="100%" height="100%" fill="transparent"></rect>
<g transform="matrix(1 0 0 1 540 540)" id="54f9a6b0-70f2-498c-8857-d004879b504f"  >
</g>
<g transform="matrix(1 0 0 1 540 540)" id="bc851d18-9264-4a57-8637-64c7b4d88006"  >
<rect style="stroke: none; stroke-width: 1; stroke-dasharray: none; stroke-linecap: butt; stroke-dashoffset: 0; stroke-linejoin: miter; stroke-miterlimit: 4; fill: rgb(255,255,255); fill-rule: nonzero; opacity: 1; visibility: hidden;" vector-effect="non-scaling-stroke"  x="-540" y="-540" rx="0" ry="0" width="1080" height="1080" />
</g>
<g transform="matrix(0 0 0 0 0 0)"  >
<g style=""   >
</g>
</g>
<g transform="matrix(1 0 0 1 540 540)"  >
<path style="stroke: rgb(0,0,0); stroke-width: 0; stroke-dasharray: none; stroke-linecap: butt; stroke-dashoffset: 0; stroke-linejoin: miter; stroke-miterlimit: 4; fill: rgb(0,0,0); fill-rule: nonzero; opacity: 1;" vector-effect="non-scaling-stroke"  transform=" translate(-160, -256)" d="M 310.6 150.6 C 323.1 138.1 323.1 117.8 310.6 105.3 C 298.1 92.8 277.8 92.8 265.3 105.3 L 160 210.7 L 54.6 105.4 C 42.1 92.9 21.800000000000004 92.9 9.300000000000004 105.4 C -3.1999999999999957 117.9 -3.1999999999999957 138.2 9.300000000000004 150.7 L 114.7 256 L 9.4 361.4 C -3.0999999999999996 373.9 -3.0999999999999996 394.2 9.4 406.7 C 21.9 419.2 42.199999999999996 419.2 54.699999999999996 406.7 L 160 301.3 L 265.4 406.6 C 277.9 419.1 298.2 419.1 310.7 406.6 C 323.2 394.1 323.2 373.8 310.7 361.3 L 205.3 256 L 310.6 150.6 z" stroke-linecap="round" />
</g>
</svg>